PathFileType  4	(X/Y/Z) /root/TVB/SAM4Dcap/opencap/output/Data/subject2_Session0/MarkerData/mmpose_0.8/2-cameras/PreAugmentation
DataRate	CameraRate	NumFrames	NumMarkers	Units	OrigDataRate	OrigDataStartFrame	OrigNumFrames
60.0	60.0	17	20	m	60.0	42	164
Frame#	Time	Neck			RShoulder			RElbow			RWrist			LShoulder			LElbow			LWrist			midHip			RHip			RKnee			RAnkle			LHip			LKnee			LAnkle			LBigToe			LSmallToe			LHeel			RBigToe			RSmallToe			RHeel			
		X1	Y1	Z1	X2	Y2	Z2	X3	Y3	Z3	X4	Y4	Z4	X5	Y5	Z5	X6	Y6	Z6	X7	Y7	Z7	X8	Y8	Z8	X9	Y9	Z9	X10	Y10	Z10	X11	Y11	Z11	X12	Y12	Z12	X13	Y13	Z13	X14	Y14	Z14	X15	Y15	Z15	X16	Y16	Z16	X17	Y17	Z17	X18	Y18	Z18	X19	Y19	Z19	X20	Y20	Z20	

42	0.6833333	0.2565500	1.2176900	-0.3289800	0.2782400	1.2112800	-0.1681500	0.0550000	1.0059600	-0.0315300	0.1040400	0.7266500	-0.0112000	0.2499600	1.2219600	-0.4913000	0.0369200	1.0032000	-0.5971100	0.0646100	0.7370200	-0.6041700	-0.0054400	0.7672500	-0.3096600	0.0026500	0.7669300	-0.1985600	0.1515400	0.3581000	-0.1828100	-0.0817900	-0.0906200	-0.1925300	-0.0059500	0.7675400	-0.4214400	0.1132000	0.3596200	-0.4178700	-0.1021100	-0.0873200	-0.3876700	0.0695900	-0.1534200	-0.4489200	0.0622700	-0.1519700	-0.4482100	-0.1375000	-0.1235700	-0.3672400	0.0625800	-0.1556700	-0.1497600	0.0546300	-0.1538400	-0.1498900	-0.1275100	-0.1272600	-0.2058700
43	0.7000000	0.2620300	1.2047900	-0.3269500	0.2822100	1.1968200	-0.1651800	0.0687000	0.9837000	-0.0299300	0.1403200	0.7089800	-0.0227000	0.2572100	1.2108000	-0.4901800	0.0531100	0.9821200	-0.5944500	0.1089900	0.7167700	-0.5954900	-0.0018100	0.7635300	-0.3074800	0.0053400	0.7632600	-0.1961300	0.1654100	0.3538400	-0.1820900	-0.0828700	-0.0960000	-0.1864400	-0.0013300	0.7639200	-0.4194800	0.1249300	0.3551800	-0.4183300	-0.0949700	-0.0945500	-0.3867900	0.0797400	-0.1526600	-0.4466900	0.0713300	-0.1513400	-0.4462600	-0.1366200	-0.1328300	-0.3682300	0.0655500	-0.1595000	-0.1482600	0.0578600	-0.1576500	-0.1483000	-0.1233900	-0.1305000	-0.1989000
44	0.7166667	0.2625600	1.1945200	-0.3281400	0.2836500	1.1879200	-0.1673900	0.0844000	0.9660500	-0.0335400	0.1746800	0.6931800	-0.0326100	0.2566000	1.1992100	-0.4903500	0.0758100	0.9617800	-0.5935900	0.1513100	0.6993400	-0.5836900	0.0003500	0.7516700	-0.3085600	0.0072300	0.7513200	-0.1975300	0.1808600	0.3498700	-0.1796200	-0.0705200	-0.0878500	-0.1865500	0.0010600	0.7521300	-0.4202400	0.1371800	0.3466400	-0.4152700	-0.0946600	-0.0951500	-0.3866200	0.0754100	-0.1543500	-0.4486500	0.0681600	-0.1528100	-0.4479000	-0.1413100	-0.1327600	-0.3688800	0.0661900	-0.1596900	-0.1492600	0.0584700	-0.1577600	-0.1490100	-0.1119300	-0.1233800	-0.1991300
45	0.7333333	0.2677200	1.1840100	-0.3280500	0.2858700	1.1789400	-0.1681700	0.1066900	0.9470700	-0.0377900	0.2166200	0.6831800	-0.0456800	0.2645600	1.1870100	-0.4893100	0.0990400	0.9430200	-0.5905500	0.1979900	0.6904800	-0.5740300	0.0111300	0.7359600	-0.3096800	0.0196800	0.7372900	-0.2015800	0.1932400	0.3461000	-0.1787000	-0.0706800	-0.0857300	-0.1873000	0.0097300	0.7346500	-0.4184300	0.1507900	0.3407000	-0.4128500	-0.0980900	-0.0989100	-0.3846400	0.0767000	-0.1518400	-0.4461100	0.0684000	-0.1502500	-0.4457800	-0.1474600	-0.1367300	-0.3665500	0.0750400	-0.1596300	-0.1492500	0.0673700	-0.1575600	-0.1490100	-0.1133900	-0.1208800	-0.2000300
46	0.7500000	0.2735900	1.1750100	-0.3270000	0.2918700	1.1699800	-0.1684600	0.1283300	0.9292900	-0.0400100	0.2599200	0.6750800	-0.0572300	0.2700400	1.1780800	-0.4869000	0.1256800	0.9267600	-0.5892000	0.2368100	0.6844700	-0.5673600	0.0187200	0.7354900	-0.3048100	0.0253000	0.7371700	-0.1977800	0.2048900	0.3412500	-0.1774300	-0.0644500	-0.0859100	-0.1797300	0.0191600	0.7338700	-0.4124200	0.1597800	0.3322400	-0.4137100	-0.0939100	-0.0993300	-0.3841500	0.0761800	-0.1576400	-0.4447700	0.0695300	-0.1559100	-0.4441500	-0.1406400	-0.1361800	-0.3669900	0.0800600	-0.1603400	-0.1516600	0.0724900	-0.1584100	-0.1509600	-0.1121500	-0.1208700	-0.1875300
47	0.7666667	0.2755400	1.1676300	-0.3271300	0.2904700	1.1630400	-0.1681300	0.1496800	0.9167100	-0.0439100	0.2969500	0.6660400	-0.0654700	0.2754000	1.1698900	-0.4874100	0.1519600	0.9121800	-0.5871600	0.2892000	0.6803000	-0.5525600	0.0218900	0.7416900	-0.3043300	0.0303100	0.7451500	-0.1984000	0.2206200	0.3363200	-0.1786800	-0.0672000	-0.0816400	-0.1867600	0.0204000	0.7386000	-0.4108700	0.1716200	0.3257200	-0.4127100	-0.0911100	-0.0930700	-0.3851000	0.0763600	-0.1577400	-0.4483700	0.0690000	-0.1557900	-0.4475900	-0.1371800	-0.1279800	-0.3709300	0.0782800	-0.1617300	-0.1510900	0.0708300	-0.1596300	-0.1509300	-0.1115900	-0.1135600	-0.1948300
48	0.7833333	0.2788800	1.1640400	-0.3277700	0.2945600	1.1608000	-0.1698100	0.1750900	0.9016300	-0.0424400	0.3434600	0.6724600	-0.0784100	0.2778000	1.1649700	-0.4870200	0.1788100	0.8943800	-0.5883600	0.3511500	0.6815600	-0.5375600	0.0354900	0.7244500	-0.3052700	0.0448100	0.7278700	-0.1979800	0.2281100	0.3260700	-0.1783700	-0.0688300	-0.0815100	-0.1820300	0.0331800	0.7207300	-0.4132200	0.1829000	0.3181000	-0.4113500	-0.0947700	-0.0980300	-0.3830800	0.0772800	-0.1589600	-0.4415800	0.0699500	-0.1573600	-0.4404800	-0.1388900	-0.1284100	-0.3691300	0.0752200	-0.1591900	-0.1519600	0.0677100	-0.1568900	-0.1515700	-0.1084400	-0.1122100	-0.1929300
49	0.8000000	0.2814000	1.1620700	-0.3272300	0.2955500	1.1582800	-0.1690900	0.1966100	0.8878200	-0.0400500	0.3932100	0.6773800	-0.0966700	0.2818900	1.1638700	-0.4866100	0.2084900	0.8897200	-0.5860900	0.3949200	0.6975000	-0.5291400	0.0510900	0.7173900	-0.3056400	0.0594000	0.7204300	-0.1992300	0.2392100	0.3220700	-0.1812600	-0.0679900	-0.0803100	-0.1886800	0.0496600	0.7143100	-0.4126800	0.1946100	0.3113800	-0.4080400	-0.0913400	-0.1017100	-0.3859300	0.0748700	-0.1602200	-0.4464600	0.0671300	-0.1583700	-0.4457200	-0.1348700	-0.1306400	-0.3716600	0.0768300	-0.1599400	-0.1544200	0.0695300	-0.1573900	-0.1541500	-0.1089600	-0.1098900	-0.1983000
50	0.8166667	0.2848500	1.1618600	-0.3258600	0.2987900	1.1575400	-0.1666400	0.2253000	0.8805900	-0.0388200	0.4328100	0.6928100	-0.1051700	0.2857200	1.1644400	-0.4863100	0.2395300	0.8855000	-0.5884300	0.4411800	0.7186400	-0.5227000	0.0574200	0.7298200	-0.3038100	0.0634600	0.7322500	-0.1977600	0.2515600	0.3177900	-0.1826800	-0.0609500	-0.0780800	-0.1865300	0.0582000	0.7275500	-0.4104400	0.2089900	0.3125600	-0.4029300	-0.0991600	-0.1080700	-0.3853000	0.0771300	-0.1634800	-0.4374600	0.0695000	-0.1618500	-0.4370200	-0.1511300	-0.1424900	-0.3758100	0.0756300	-0.1574100	-0.1518300	0.0685000	-0.1551000	-0.1517700	-0.1011000	-0.1051600	-0.1948300
51	0.8333333	0.2904900	1.1612000	-0.3257300	0.3045400	1.1585600	-0.1660200	0.2562000	0.8763300	-0.0378300	0.4744500	0.7115200	-0.1112900	0.2913300	1.1618600	-0.4867000	0.2700400	0.8848700	-0.5901100	0.4860900	0.7402900	-0.5171100	0.0675900	0.7288000	-0.3058400	0.0751800	0.7313500	-0.1952900	0.2616500	0.3165300	-0.1820400	-0.0500000	-0.0673500	-0.1915100	0.0673300	0.7266800	-0.4170300	0.2260300	0.3119000	-0.3984200	-0.0924500	-0.1005600	-0.3888800	0.0791200	-0.1595700	-0.4437800	0.0710100	-0.1577300	-0.4435400	-0.1468000	-0.1357300	-0.3788800	0.0752700	-0.1558200	-0.1486800	0.0689800	-0.1530400	-0.1489300	-0.0913300	-0.0957400	-0.2015200
52	0.8500000	0.2941000	1.1635700	-0.3259100	0.3032600	1.1605500	-0.1676200	0.2864600	0.8819400	-0.0374400	0.5150600	0.7399200	-0.1154900	0.2996200	1.1647800	-0.4852700	0.3007300	0.8980500	-0.5926100	0.5236800	0.7734500	-0.5209400	0.0769900	0.7207000	-0.3079500	0.0842700	0.7222500	-0.1933500	0.2728900	0.3094100	-0.1811900	-0.0546800	-0.0722000	-0.1897000	0.0775900	0.7196000	-0.4232200	0.2317500	0.3063200	-0.3964200	-0.0862400	-0.0998500	-0.3881100	0.0852100	-0.1592300	-0.4432800	0.0777600	-0.1574800	-0.4426500	-0.1389900	-0.1337100	-0.3765700	0.0742500	-0.1589100	-0.1488600	0.0681100	-0.1562900	-0.1489200	-0.0939700	-0.0977800	-0.2002800
53	0.8666667	0.2997900	1.1695900	-0.3248500	0.3106600	1.1662600	-0.1683300	0.3112600	0.8965900	-0.0383100	0.5465400	0.7731900	-0.1228400	0.3032700	1.1713100	-0.4824800	0.3279900	0.9148400	-0.5932700	0.5686600	0.8040000	-0.5129100	0.0795600	0.7008300	-0.3072300	0.0848900	0.7023600	-0.1949400	0.2815600	0.3072400	-0.1833000	-0.0556600	-0.0688400	-0.1895500	0.0819300	0.7002500	-0.4201300	0.2411700	0.2974400	-0.3952400	-0.0884400	-0.0992300	-0.3878400	0.0835100	-0.1582800	-0.4428800	0.0753200	-0.1566000	-0.4426000	-0.1440300	-0.1361400	-0.3778300	0.0771100	-0.1554100	-0.1476200	0.0709300	-0.1526400	-0.1476700	-0.0983200	-0.0948900	-0.1997000
54	0.8833333	0.3061500	1.1787000	-0.3250000	0.3176000	1.1763400	-0.1676200	0.3341500	0.9163400	-0.0380500	0.5853900	0.8056000	-0.1256600	0.3091600	1.1793700	-0.4835300	0.3440200	0.9449200	-0.5892000	0.5964300	0.8432400	-0.5003800	0.0894000	0.7050500	-0.3093800	0.0926500	0.7082000	-0.1996000	0.2893800	0.3010900	-0.1839700	-0.0548900	-0.0770500	-0.1882900	0.0935700	0.7018300	-0.4197600	0.2467300	0.2919600	-0.3911700	-0.0882500	-0.0999500	-0.3892100	0.0870000	-0.1583200	-0.4453400	0.0796700	-0.1567900	-0.4445300	-0.1462200	-0.1358900	-0.3790100	0.0822100	-0.1635600	-0.1476800	0.0762200	-0.1612500	-0.1475800	-0.0946100	-0.1006700	-0.1988200
55	0.9000000	0.3150000	1.1895800	-0.3254400	0.3269600	1.1882400	-0.1690600	0.3475000	0.9396000	-0.0397800	0.6149700	0.8444200	-0.1281100	0.3172800	1.1892400	-0.4829800	0.3618500	0.9645300	-0.5879900	0.6244500	0.8826600	-0.4898800	0.0943600	0.7093300	-0.3064400	0.0996200	0.7113400	-0.1997700	0.2953700	0.2965800	-0.1865900	-0.0501400	-0.0675800	-0.1875500	0.0962000	0.7066800	-0.4137100	0.2474600	0.2837500	-0.3873900	-0.0912200	-0.1018400	-0.3878600	0.0903700	-0.1585000	-0.4447700	0.0823600	-0.1568400	-0.4445600	-0.1480100	-0.1367600	-0.3780200	0.0839900	-0.1592400	-0.1486700	0.0779100	-0.1566700	-0.1484900	-0.0930600	-0.0926700	-0.1989700
56	0.9166667	0.3199600	1.2049400	-0.3256000	0.3299900	1.2025000	-0.1681700	0.3455500	0.9731800	-0.0405600	0.6277000	0.8842900	-0.1340900	0.3243400	1.2055500	-0.4841200	0.3818100	0.9873700	-0.5868900	0.6624800	0.9238400	-0.4790200	0.1134800	0.7084700	-0.3043200	0.1203100	0.7115000	-0.1995600	0.2960700	0.2967900	-0.1874300	-0.0617300	-0.0788900	-0.1860700	0.1133500	0.7052400	-0.4097100	0.2491400	0.2818400	-0.3856700	-0.0843600	-0.0948300	-0.3830700	0.0823600	-0.1627000	-0.4444500	0.0755100	-0.1608600	-0.4435700	-0.1335300	-0.1246100	-0.3692700	0.0811400	-0.1629500	-0.1502300	0.0750700	-0.1606800	-0.1498500	-0.1071000	-0.1046300	-0.1982400
57	0.9333333	0.3285100	1.2225400	-0.3251300	0.3371200	1.2192900	-0.1672400	0.3604300	0.9967400	-0.0332200	0.6505900	0.9253500	-0.1351900	0.3343900	1.2238100	-0.4840800	0.3963200	1.0060800	-0.6001300	0.6758700	0.9630300	-0.4902600	0.1307800	0.7222600	-0.3050800	0.1402300	0.7253700	-0.1993400	0.2958400	0.2945800	-0.1879900	-0.0517100	-0.0712900	-0.1878400	0.1281300	0.7188400	-0.4115200	0.2498900	0.2829500	-0.3832900	-0.0841600	-0.0927700	-0.3846500	0.0833100	-0.1612700	-0.4445500	0.0754000	-0.1591400	-0.4442200	-0.1325700	-0.1233600	-0.3705500	0.0763400	-0.1618300	-0.1500500	0.0704800	-0.1589800	-0.1500400	-0.0982500	-0.0982800	-0.2007500
58	0.9500000	0.3366400	1.2460900	-0.3262800	0.3422700	1.2469200	-0.1695600	0.3688000	1.0292000	-0.0294300	0.6582900	0.9644000	-0.1364300	0.3452700	1.2434900	-0.4839500	0.4209300	1.0240000	-0.6101700	0.7000100	1.0080700	-0.4915500	0.1516100	0.7361400	-0.3056000	0.1606900	0.7404200	-0.1985200	0.2956100	0.2976400	-0.1884100	-0.0601200	-0.0800500	-0.1857800	0.1495200	0.7314300	-0.4133900	0.2492400	0.2844000	-0.3840500	-0.0875900	-0.0968300	-0.3849100	0.0693700	-0.1660700	-0.4417200	0.0620900	-0.1638800	-0.4409000	-0.1354700	-0.1276000	-0.3727600	0.0811000	-0.1645100	-0.1499000	0.0743600	-0.1620100	-0.1498300	-0.1057300	-0.1073400	-0.1958400
